<svg xmlns="http://www.w3.org/2000/svg" width="669" height="209" viewBox="0 0 669 209" fill="none"><script xmlns=""/>
    <path d="M289.35 76.8353C289.347 88.5694 284.684 99.822 276.386 108.118C268.088 116.415 256.834 121.075 245.1 121.075H130.3C121.095 120.92 112.319 117.154 105.864 110.589C99.4096 104.025 95.7925 95.1868 95.7925 85.9803C95.7925 76.7738 99.4096 67.9359 105.864 61.3712C112.319 54.8066 121.095 51.0407 130.3 50.8853H131.08C133.107 38.325 139.041 26.7229 148.038 17.7269C157.034 8.73091 168.637 2.79855 181.198 0.77249C193.758 -1.25357 206.638 0.72969 218.007 6.44056C229.376 12.1514 238.656 21.2995 244.53 32.5853H245.1C256.836 32.5853 268.091 37.2474 276.39 45.5459C284.688 53.8443 289.35 65.0995 289.35 76.8353Z" fill="#25A4DD"/>
    <path d="M192.9 56.8454C190.523 53.9711 187.506 51.6936 184.09 50.1954C180.833 48.8539 177.342 48.174 173.82 48.1954C169.866 48.1377 165.936 48.8159 162.23 50.1954C158.834 51.4831 155.742 53.4614 153.15 56.0054C150.543 58.5994 148.5 61.7044 147.15 65.1254C145.669 68.9122 144.936 72.9498 144.99 77.0154C144.936 80.9933 145.67 84.9426 147.15 88.6354C148.482 92.004 150.504 95.0562 153.088 97.595C155.672 100.134 158.759 102.103 162.15 103.375C165.856 104.755 169.786 105.433 173.74 105.375C177.63 105.399 181.481 104.613 185.05 103.065C188.666 101.465 191.777 98.9107 194.05 95.6754L186.05 89.9854C184.506 92.0605 182.522 93.768 180.24 94.9854C178.253 96.015 176.048 96.5566 173.81 96.5654C171.177 96.5999 168.566 96.075 166.15 95.0254C163.921 94.0323 161.92 92.5927 160.27 90.7954C158.591 88.9373 157.297 86.7657 156.46 84.4054C155.538 81.8125 155.081 79.0772 155.11 76.3254C155.089 73.7241 155.547 71.1411 156.46 68.7054C157.314 66.4103 158.608 64.3042 160.27 62.5054C161.921 60.7292 163.923 59.3159 166.15 58.3554C168.572 57.3287 171.18 56.8179 173.81 56.8554C175.746 56.8636 177.665 57.2263 179.47 57.9254C181.705 58.9097 183.69 60.3824 185.28 62.2354L192.9 56.8454Z" fill="white"/>
    <path d="M205.29 104.105H242.77V95.3254H214.99V80.5554H240V71.7754H214.99V58.3854H241.39V49.6154H205.29V104.105Z" fill="white"/>
    <path d="M345.19 89.6354C343.718 91.6339 341.823 93.2831 339.64 94.4654C337.756 95.438 335.67 95.9519 333.55 95.9654C331.023 96.0013 328.517 95.4967 326.2 94.4854C324.06 93.5411 322.139 92.1619 320.56 90.4354C318.947 88.6502 317.703 86.5634 316.9 84.2954C316.015 81.7843 315.575 79.1379 315.6 76.4754C315.577 73.9662 316.017 71.4744 316.9 69.1254C317.717 66.9056 318.96 64.8672 320.56 63.1254C322.143 61.4209 324.059 60.0595 326.19 59.1254C328.518 58.1459 331.024 57.659 333.55 57.6954C335.393 57.6959 337.22 58.0349 338.94 58.6954C341.062 59.6482 342.95 61.0545 344.47 62.8154L344.92 63.3054L353.66 56.8954L353.12 56.2754C350.662 53.3157 347.55 50.9673 344.03 49.4154C340.672 48.097 337.087 47.4547 333.48 47.5254C329.437 47.4565 325.417 48.1345 321.62 49.5254C318.126 50.86 314.946 52.9028 312.28 55.5254C309.619 58.1982 307.533 61.3868 306.15 64.8954C304.638 68.7724 303.888 72.9044 303.94 77.0654C303.888 81.1419 304.639 85.1888 306.15 88.9754C307.525 92.4426 309.612 95.5826 312.277 98.1923C314.942 100.802 318.125 102.823 321.62 104.125C325.408 105.558 329.43 106.273 333.48 106.235C337.472 106.253 341.424 105.446 345.09 103.865C348.83 102.212 352.051 99.5754 354.41 96.2354L354.85 95.6154L345.65 89.0654L345.19 89.6354Z" fill="#25A4DD"/>
    <path d="M369.63 45.1654H358.89V104.845H369.63V45.1654Z" fill="#25A4DD"/>
    <path d="M409.41 71.0054C407.489 69.2158 405.232 67.8255 402.77 66.9154C397.528 65.0087 391.782 65.0087 386.54 66.9154C384.076 67.8231 381.819 69.2136 379.9 71.0054C378.004 72.8024 376.493 74.9662 375.46 77.3654C373.274 82.6585 373.274 88.6023 375.46 93.8954C376.493 96.2945 378.004 98.4584 379.9 100.255C381.819 102.047 384.076 103.438 386.54 104.345C391.782 106.252 397.528 106.252 402.77 104.345C405.232 103.435 407.489 102.045 409.41 100.255C411.303 98.4557 412.813 96.2925 413.85 93.8954C416.036 88.6023 416.036 82.6585 413.85 77.3654C412.813 74.9683 411.303 72.8051 409.41 71.0054V71.0054ZM404.76 85.6354C404.763 86.9628 404.53 88.2801 404.07 89.5254C403.632 90.7455 402.951 91.8645 402.07 92.8154C400.593 94.3194 398.697 95.3427 396.629 95.7512C394.561 96.1598 392.418 95.9347 390.48 95.1054C389.274 94.5627 388.19 93.7841 387.29 92.8154C386.407 91.866 385.726 90.7466 385.29 89.5254C384.37 87.0102 384.37 84.2506 385.29 81.7354C385.728 80.5153 386.409 79.3962 387.29 78.4454C388.241 77.4322 389.39 76.6246 390.665 76.0726C391.94 75.5206 393.315 75.2357 394.705 75.2357C396.095 75.2357 397.47 75.5206 398.745 76.0726C400.02 76.6246 401.169 77.4322 402.12 78.4454C403.001 79.3962 403.682 80.5153 404.12 81.7354C404.563 82.9872 404.78 84.3077 404.76 85.6354V85.6354Z" fill="#25A4DD"/>
    <path d="M444.01 87.3254C444.013 88.4534 443.865 89.5767 443.57 90.6654C443.304 91.6592 442.838 92.5882 442.2 93.3954C441.569 94.189 440.765 94.8285 439.85 95.2654C438.731 95.7633 437.514 96.0025 436.29 95.9654C435.103 96.0477 433.925 95.7115 432.96 95.0154C432.156 94.3578 431.542 93.4984 431.18 92.5254C430.761 91.4599 430.505 90.3373 430.42 89.1954C430.32 87.9854 430.27 86.8454 430.27 85.8354V66.4154H419.53V90.5254C419.523 92.4353 419.765 94.338 420.25 96.1854C420.715 97.981 421.55 99.66 422.7 101.115C423.891 102.603 425.42 103.786 427.16 104.565C429.241 105.452 431.488 105.882 433.75 105.825C436.506 105.963 439.232 105.194 441.51 103.635C442.651 102.787 443.662 101.777 444.51 100.635V104.865H454.78V66.4154H444.01V87.3254Z" fill="#25A4DD"/>
    <path d="M490.48 70.1254C490.24 69.8854 489.99 69.6454 489.73 69.4154C488.89 68.6807 487.967 68.0464 486.98 67.5254C485.808 66.8972 484.566 66.4105 483.28 66.0754C481.711 65.6821 480.097 65.4972 478.48 65.5254C475.883 65.5021 473.312 66.0375 470.94 67.0954C468.692 68.1009 466.679 69.5656 465.03 71.3954C463.374 73.2722 462.085 75.4431 461.23 77.7954C460.32 80.3223 459.863 82.9898 459.88 85.6754C459.862 88.3479 460.291 91.0047 461.15 93.5354C461.956 95.9098 463.239 98.0945 464.92 99.9554C466.604 101.783 468.646 103.243 470.92 104.245C473.445 105.33 476.172 105.865 478.92 105.815C481.546 105.834 484.145 105.284 486.54 104.205C488.279 103.42 489.812 102.242 491.02 100.765V104.895H501.29V45.1654H490.48V70.1254ZM488.1 78.4454C488.981 79.3963 489.662 80.5153 490.1 81.7354C491.02 84.2506 491.02 87.0102 490.1 89.5254C489.664 90.7466 488.983 91.8661 488.1 92.8154C487.149 93.8286 486 94.6362 484.725 95.1882C483.45 95.7402 482.075 96.025 480.685 96.025C479.295 96.025 477.92 95.7402 476.645 95.1882C475.37 94.6362 474.221 93.8286 473.27 92.8154C472.387 91.8661 471.706 90.7466 471.27 89.5254C470.35 87.0102 470.35 84.2506 471.27 81.7354C471.708 80.5153 472.389 79.3963 473.27 78.4454C474.221 77.4322 475.37 76.6246 476.645 76.0726C477.92 75.5206 479.295 75.2358 480.685 75.2358C482.075 75.2358 483.45 75.5206 484.725 76.0726C486 76.6246 487.149 77.4322 488.1 78.4454V78.4454Z" fill="#25A4DD"/>
    <path d="M522.23 48.8654H511.04V104.855H545.4V94.5754H522.23V48.8654Z" fill="#25A4DD"/>
    <path d="M582.48 76.0754C582.172 74.736 581.684 73.4443 581.03 72.2354C580.305 70.8986 579.307 69.7298 578.1 68.8054C576.686 67.7421 575.099 66.9303 573.41 66.4054C571.16 65.7518 568.822 65.4549 566.48 65.5254C563.508 65.522 560.556 66.005 557.74 66.9554C554.899 67.9008 552.329 69.5203 550.25 71.6754L549.73 72.2054L555.62 78.1054L556.15 77.5954C557.354 76.4559 558.762 75.5534 560.3 74.9354C561.945 74.2692 563.705 73.9295 565.48 73.9354C567.481 73.8488 569.458 74.4061 571.12 75.5254C571.824 76.054 572.384 76.7517 572.748 77.554C573.111 78.3562 573.267 79.2372 573.2 80.1154V80.3554H571.64C570.09 80.3554 568.43 80.3554 566.64 80.4754C564.871 80.5547 563.107 80.7384 561.36 81.0254C559.629 81.3097 557.925 81.7447 556.27 82.3254C554.679 82.8761 553.19 83.6834 551.86 84.7154C550.566 85.7381 549.511 87.0317 548.77 88.5054C547.959 90.2089 547.562 92.0796 547.61 93.9654C547.573 95.7805 548.004 97.5745 548.86 99.1754C549.659 100.632 550.769 101.895 552.11 102.875C553.484 103.872 555.025 104.617 556.66 105.075C558.341 105.556 560.081 105.798 561.83 105.795C564.27 105.821 566.687 105.313 568.91 104.305C570.554 103.543 572.006 102.422 573.16 101.025V104.875H582.97V82.8754C582.97 81.9854 582.97 80.9654 582.89 79.7954C582.871 78.5453 582.734 77.2997 582.48 76.0754V76.0754ZM558.91 95.0754C558.587 94.5394 558.427 93.9209 558.45 93.2954C558.426 92.8105 558.519 92.327 558.723 91.8863C558.927 91.4456 559.235 91.061 559.62 90.7654C560.615 90.0358 561.743 89.506 562.94 89.2054C564.362 88.8237 565.82 88.5859 567.29 88.4954C568.87 88.3954 570.29 88.3454 571.56 88.3454H572.73V89.6754C572.793 90.7088 572.643 91.7442 572.291 92.7177C571.938 93.6911 571.39 94.582 570.68 95.3354C569.32 96.6954 567.13 97.3354 564.17 97.3354C563.449 97.3362 562.731 97.2523 562.03 97.0854C561.376 96.9419 560.756 96.6773 560.2 96.3054C559.67 95.9793 559.214 95.5468 558.86 95.0354L558.91 95.0754Z" fill="#25A4DD"/>
    <path d="M627.67 71.3554C626.021 69.5256 624.008 68.0609 621.76 67.0554C619.388 65.9975 616.817 65.462 614.22 65.4854C612.598 65.4619 610.981 65.6535 609.41 66.0554C608.12 66.3905 606.875 66.8772 605.7 67.5054C604.71 68.0344 603.784 68.6753 602.94 69.4154C602.68 69.6454 602.43 69.8854 602.19 70.1254V45.1254H591.48V104.815H601.75V100.725C602.958 102.202 604.491 103.38 606.23 104.165C608.624 105.244 611.224 105.794 613.85 105.775C616.574 105.812 619.275 105.277 621.78 104.205C624.058 103.21 626.102 101.749 627.78 99.9154C629.461 98.0545 630.744 95.8698 631.55 93.4954C632.408 90.9644 632.837 88.3078 632.82 85.6354C632.842 82.9494 632.384 80.281 631.47 77.7554C630.619 75.401 629.33 73.2293 627.67 71.3554V71.3554ZM622.09 85.6354C622.093 86.9628 621.86 88.2801 621.4 89.5254C620.962 90.7455 620.281 91.8645 619.4 92.8154C618.449 93.8286 617.3 94.6361 616.025 95.1882C614.75 95.7402 613.375 96.025 611.985 96.025C610.595 96.025 609.22 95.7402 607.945 95.1882C606.67 94.6361 605.521 93.8286 604.57 92.8154C603.69 91.8634 603.01 90.7447 602.57 89.5254C601.664 87.0078 601.664 84.253 602.57 81.7354C603.008 80.5153 603.689 79.3962 604.57 78.4454C605.521 77.4321 606.67 76.6246 607.945 76.0726C609.22 75.5205 610.595 75.2357 611.985 75.2357C613.375 75.2357 614.75 75.5205 616.025 76.0726C617.3 76.6246 618.449 77.4321 619.4 78.4454C620.281 79.3962 620.962 80.5153 621.4 81.7354C621.86 82.9841 622.093 84.3047 622.09 85.6354V85.6354Z" fill="#25A4DD"/>
    <path d="M666.86 87.0454C665.821 85.5796 664.451 84.3803 662.86 83.5454C661.283 82.7109 659.602 82.092 657.86 81.7054C656.153 81.3254 654.553 80.9554 653.06 80.5954C651.839 80.327 650.657 79.9071 649.54 79.3454C649.199 79.1858 648.915 78.9261 648.726 78.6009C648.536 78.2758 648.451 77.9005 648.48 77.5254C648.447 77.0441 648.56 76.564 648.804 76.1481C649.049 75.7322 649.413 75.4001 649.85 75.1954C650.855 74.6528 651.978 74.3644 653.12 74.3554C654.427 74.3201 655.721 74.6195 656.88 75.225C658.038 75.8306 659.023 76.7223 659.74 77.8154L660.23 78.4954L667.51 71.9454L667.12 71.3954C665.575 69.2533 663.406 67.6399 660.91 66.7754C656.663 65.2715 652.064 65.0661 647.7 66.1854C645.91 66.6326 644.215 67.4018 642.7 68.4554C641.221 69.4995 640 70.8676 639.13 72.4554C638.196 74.211 637.727 76.177 637.77 78.1654C637.653 80.2845 638.214 82.3858 639.37 84.1654C640.413 85.5891 641.785 86.7387 643.37 87.5154C644.952 88.3021 646.634 88.8674 648.37 89.1954C650.05 89.5254 651.66 89.8854 653.14 90.2654C654.366 90.5517 655.54 91.0274 656.62 91.6754C657.18 92.0831 657.562 92.6903 657.686 93.3715C657.811 94.0527 657.669 94.7558 657.29 95.3354C656.953 95.7987 656.519 96.1841 656.02 96.4654C655.467 96.7889 654.866 97.0218 654.24 97.1554C653.609 97.2917 652.966 97.362 652.32 97.3654C650.723 97.4158 649.143 97.0174 647.76 96.2154C646.4 95.3521 645.171 94.298 644.11 93.0854L643.6 92.5054L636.35 99.2954L636.83 99.8454C638.643 101.975 640.985 103.589 643.62 104.525C646.253 105.39 649.009 105.819 651.78 105.795C653.75 105.793 655.714 105.582 657.64 105.165C659.529 104.771 661.337 104.061 662.99 103.065C664.591 102.092 665.941 100.756 666.93 99.1654C668.004 97.3531 668.535 95.2706 668.46 93.1654C668.567 91.0096 668.008 88.8732 666.86 87.0454V87.0454Z" fill="#25A4DD"/>
    <path d="M50.54 100.925L51.46 97.0054L62.32 46.3154C63.7155 39.491 65.6037 32.7767 67.97 26.2254C69.6811 21.6202 72.0126 17.2701 74.9 13.2954C81.52 4.43536 89.7567 0.00869648 99.61 0.0153631C102.724 -0.0180643 105.816 0.527883 108.73 1.62536L104.58 12.1354C101.5 7.82203 97.5733 5.6687 92.8 5.67536C91.101 5.63431 89.4161 5.99408 87.882 6.7255C86.348 7.45693 85.0078 8.53945 83.97 9.88536C81.69 12.6987 79.7433 17.3354 78.13 23.7954L60.48 97.0054L59.56 100.925L43.73 166.525C41.65 175.305 39.63 181.849 37.67 186.155C35.65 190.551 32.9502 194.6 29.67 198.155C23.51 204.822 16.7767 208.155 9.47 208.155C6.21907 208.215 2.99216 207.588 0 206.315L5.66 197.995C8.58699 200.503 12.306 201.895 16.16 201.925C21.86 201.925 26.1333 198.925 28.98 192.925C31.06 188.465 33.2533 181.075 35.56 170.755L50.54 100.925Z" fill="#25A4DD"/>
    <path d="M13.2397 99.1054C13.2397 99.1054 33.2397 89.6054 46.1397 90.1054C59.0397 90.6054 66.0097 96.7354 80.8697 90.8254L76.9297 100.675C76.9297 100.675 70.1297 103.535 56.6997 100.675C43.2697 97.8154 30.2597 93.9754 15.4097 101.315L13.2397 99.1054Z" fill="#25A4DD"/>
    <path d="M59.8497 23.9354C59.8497 23.9354 65.9397 48.2854 15.4097 101.345L13.2397 99.1054C13.2397 99.1054 21.5897 92.7454 33.6497 73.6654C45.7097 54.5854 47.4097 40.6654 45.8797 31.8554L59.8497 23.9354Z" fill="#25A4DD"/>
    <script xmlns=""/></svg>